<?xml version="1.0" encoding="utf-8"?>
<!-- Generator: Adobe Illustrator 26.3.1, SVG Export Plug-In . SVG Version: 6.00 Build 0)  -->
<svg version="1.1" id="Layer_1" xmlns="http://www.w3.org/2000/svg" xmlns:xlink="http://www.w3.org/1999/xlink" x="0px" y="0px"
	 viewBox="0 0 1000 1000" style="enable-background:new 0 0 1000 1000;" xml:space="preserve">
<style type="text/css">
	.st0{fill:#6312C7;}
</style>
<g>
	<path class="st0" d="M176.38,526.56h203.91c0.58,5.33,1.57,10.34,1.59,15.36c0.16,29.31-0.37,58.61,0.2,87.91
		c1.18,60.34,35.79,98.57,95.99,103.96c18.22,1.63,37.48,0,55.31-4.21c40.21-9.52,66.03-43.26,66.34-86.43
		c0.75-103.22,0.4-206.45,0.49-309.68c0.01-7.89,0-15.79,0-25.15c0-0.01,0-0.01,0.01-0.01h218.2c1.97,0,3.85,1.12,4.55,2.96
		c0.13,0.34,0.21,0.67,0.21,1c0.05,115.87,3.6,231.89-1.11,347.58c-4.01,98.49-53.44,175.2-140.61,222.3
		c-115.66,62.49-235.61,66.38-354.03,8.46c-96.17-47.04-143.84-129.21-150.61-234.7C174.11,613.58,176.38,570.96,176.38,526.56z"/>
	<path class="st0" d="M345.99,68.36h476.09c0.02,0,0.04,0.02,0.04,0.04v194.31c0,0.02-0.02,0.04-0.04,0.04c-6.34,0-13.31,0-20.27,0
		c-108.45-0.07-216.89-0.44-325.33,0.13c-13.9,0.07-21.38-4.45-28.03-16.25c-29.96-53.2-60.81-105.91-91.29-158.83L345.99,68.36z"/>
</g>
</svg>
